<?xml version="1.0" encoding="UTF-8"?>
<svg width="100" height="100" version="1.1" viewBox="0 0 100 100" xmlns="http://www.w3.org/2000/svg" xmlns:cc="http://creativecommons.org/ns#" xmlns:dc="http://purl.org/dc/elements/1.1/" xmlns:rdf="http://www.w3.org/1999/02/22-rdf-syntax-ns#">
 <title>Menu Icon</title>
 <metadata>
  <rdf:RDF>
   <cc:Work rdf:about="">
    <cc:license rdf:resource="http://creativecommons.org/publicdomain/zero/1.0/"/>
    <dc:date>2022-01-22</dc:date>
    <dc:creator>
     <cc:Agent>
      <dc:title>EkoJR</dc:title>
     </cc:Agent>
    </dc:creator>
    <dc:publisher>
     <cc:Agent>
      <dc:title>EkoJR</dc:title>
     </cc:Agent>
    </dc:publisher>
    <dc:language>en-US</dc:language>
    <dc:source>https://wordpress.org/plugins/gofer-seo/</dc:source>
    <dc:title>Menu Icon</dc:title>
   </cc:Work>
   <cc:License rdf:about="http://creativecommons.org/publicdomain/zero/1.0/">
    <cc:permits rdf:resource="http://creativecommons.org/ns#Reproduction"/>
    <cc:permits rdf:resource="http://creativecommons.org/ns#Distribution"/>
    <cc:permits rdf:resource="http://creativecommons.org/ns#DerivativeWorks"/>
   </cc:License>
  </rdf:RDF>
 </metadata>
 <g>
  <g fill="#cdcdcd">
   <path d="m41.204 8.995-1.8094 1.4168c0.53338 0.66222 1.0069 1.3288 1.458 1.9774l1.8917-1.3085c-0.49738-0.73248-1.038-1.4354-1.5403-2.0858zm2.8188 4.0936-1.9776 1.1664c1.2126 1.9798 2.0719 4.0551 2.9266 6.0296l2.1346-0.84488c-0.83815-2.274-2.0211-4.3762-3.0836-6.3511zm3.9067 8.5311-2.1571 0.78515c0.78291 2.194 1.4671 4.4469 2.1047 6.5012l2.1945-0.67663c-0.67216-2.2718-1.4193-4.461-2.1421-6.6097zm2.8188 8.7966-2.1907 0.68792c0.67238 2.2844 1.5013 4.4478 2.2954 6.5952l2.1272-0.86363c-0.89414-2.2296-1.523-4.2231-2.2318-6.4194zm3.1178 8.4937-2.0935 0.94211c0.94827 2.249 2.2606 4.2682 3.4503 6.1871l1.8953-1.2972c-1.3378-1.8821-2.3002-3.9177-3.2521-5.832zm4.5684 7.6451-1.8318 1.3869c1.4369 1.9613 3.0823 3.6676 4.6238 5.3125l1.6262-1.6224c-1.6638-1.6081-3.0683-3.4106-4.4183-5.0771zm6.0413 6.6283-1.5552 1.6936c1.7336 1.6192 3.6556 3.0482 5.4366 4.4259l1.3684-1.8431c-1.8712-1.3319-3.5989-2.8677-5.2498-4.2764zm7.0918 5.6376-1.3607 1.8467c1.9485 1.3535 3.4858 2.7211 5.2037 4.2355 0.53852-0.52471 1.0852-1.0822 1.6227-1.6222l-0.011-0.011c-1.764-1.6994-3.5655-3.0566-5.4547-4.449zm7.0993 6.217-1.7608 1.4767c0.59507 0.69509 1.0958 1.4253 1.5636 2.1342l1.929-1.2524c-0.53331-0.84824-1.147-1.6364-1.7319-2.3585z" color="#000000" fill="#cdcdcd" stroke-dasharray="6.8907, 2.2969" stroke-dashoffset="4.3641" stroke-width="1.9141" style="-inkscape-stroke:none"/>
  </g>
  <g fill="#f3f1f1">
   <path d="m38.438 10.924-3.4431 0.11676c0.23704 3.2834-0.53736 6.5198-1.2336 9.4245l3.2637 1.1029c0.88052-3.6272 1.3061-7.446 1.4131-10.644zm-5.9254 12.475c-2.0565 4.009-5.4333 6.9819-8.6212 9.6828l2.172 2.6767 0.73271-0.59432 7e-3 -4e-3c0.46628-0.38397 0.92814-0.77655 1.387-1.1776l4e-3 -4e-3c3.1243-2.5347 5.4705-5.8554 7.3862-9.0098zm-11.301 11.784c-3.9743 2.8464-7.407 6.2007-10.284 9.9035l2.8749 1.8992c2.6137-3.7248 6.1519-6.443 9.5181-9.0777zm-12.105 13.085c-2.297 4.6344-2.5887 9.6064-2.4624 14.318l3.4319-0.27294c-0.50094-4.5074 0.63585-8.6436 2.1257-12.536zm1.3908 17.302-3.3945 0.59069c0.56089 3.4012 1.7198 6.5838 2.8208 9.5779l3.2001-1.2748c-1.2691-2.949-1.9756-5.9948-2.6264-8.8938z" color="#000000" stroke-dasharray="13.7814, 3.44535" stroke-dashoffset="4.1344" stroke-width="1.9141" style="-inkscape-stroke:none"/>
   <path d="m70.278 34.544c-1.5224 4.0742-4.4766 7.2692-7.2211 10.14l2.3888 2.4823c3.6477-3.3043 6.139-7.2909 8.0485-11.398zm-9.6938 12.389c-3.5088 3.0213-7.2695 5.5454-10.938 7.9515l1.8469 2.9085c4.1184-2.5606 7.8405-5.3956 11.331-8.2436zm-13.847 9.7985c-4.152 2.5905-7.8139 5.0613-11.555 7.7116l2.0337 2.7814c3.9182-2.8113 8.0005-5.4446 11.364-7.5863zm-14.356 9.8059c-3.7307 2.7531-6.8678 5.9049-9.8022 9.2413l2.6992 2.1384c2.7038-3.4041 6.0137-6.0704 9.2194-8.6586z" color="#000000" stroke-dasharray="13.7814, 3.44535" stroke-dashoffset=".68907" stroke-width="1.9141" style="-inkscape-stroke:none"/>
   <path d="m74.353 76.661c-2.1419 0.07393-4.2282 0.33654-6.2051 0.56427l0.48981 3.4095c2.0134-0.29866 4.0145-0.40774 5.8998-0.53192zm-9.6863 1.1515c-4.9223 0.84338-9.43 2.8343-13.426 5.1221l1.8992 2.8749c3.803-2.5281 7.9994-3.5918 12.18-4.6179zm-16.191 7.1853c-3.6838 2.6187-7.9927 3.3921-12.071 3.828l0.12633 3.4431c5.1552-0.06787 9.7811-2.0538 13.859-4.4001zm-19.791 2.9683-0.81865 3.3459c1.6904 0.44536 3.3982 0.67962 5.0099 0.85712l0.29917-3.4356c-1.5652-0.12163-3.0725-0.43412-4.4904-0.76741z" color="#000000" stroke-dasharray="13.7808, 3.44521" stroke-dashoffset="8.9575" stroke-width="1.914"/>
   <circle cx="36.763" cy="6.0453" r="5.4261" stroke-width=".82032" style="paint-order:markers stroke fill"/>
   <circle cx="74.745" cy="28.111" r="8.32" stroke-width="1.2578" style="paint-order:markers stroke fill"/>
   <circle cx="85.236" cy="77.308" r="11.214" stroke-width="1.6953" style="paint-order:markers stroke fill"/>
   <circle cx="16.144" cy="86.351" r="12.661" stroke-width="1.9141" style="paint-order:markers stroke fill"/>
  </g>
 </g>
</svg>
